<?xml version="1.0" standalone="no"?><!DOCTYPE svg PUBLIC "-//W3C//DTD SVG 1.1//EN" "http://www.w3.org/Graphics/SVG/1.1/DTD/svg11.dtd"><svg t="1485157690879" class="icon" style="" viewBox="0 0 1024 1024" version="1.1" xmlns="http://www.w3.org/2000/svg" p-id="12931" xmlns:xlink="http://www.w3.org/1999/xlink" width="200" height="200"><defs><style type="text/css"></style></defs><path d="M524.134821 187.98234c120.784708 0 219.078865 103.917344 219.078865 231.778254l0 26.850795c0 127.769173-98.294157 231.782252-219.078865 231.782252l-51.570435 0c-89.0858 0-118.942557 72.801441-136.682529 116.228997-1.647883 3.877371-3.3927 8.433282-5.234451 12.602456-6.010325-8.530217-13.183462-19.872526-19.000118-29.179216-11.535179-18.223644-24.524772-38.871645-39.646919-58.550103-36.060951-47.014924-80.26498-84.626423-82.106132-86.177372l-3.683902-3.295765-4.944048-2.133553c-3.295765-1.550948-80.652118-39.453051-80.652118-181.277694l0-26.850795c0-127.764975 98.295156-231.778254 219.079464-231.778254L524.134821 187.98234M524.134821 151.436318 319.596498 151.436318c-141.237841 0-255.624487 120.106168-255.624487 268.324276l0 26.850795c0 170.32512 102.268862 214.624884 102.268862 214.624884s42.652881 36.060551 76.678412 80.458249c33.443126 43.622424 58.065432 95.483062 76.677213 107.310044 5.913391 3.781436 11.050907 5.42832 15.509884 5.42832 40.907665 0 32.571317-139.589958 137.458003-139.589958 0.096335 0 0.290803 0 0.387337 0l51.087163 0c141.140906 0 255.624087-120.105169 255.624087-268.328473l0-26.851794C779.759707 271.542486 665.276726 151.436318 524.134821 151.436318L524.134821 151.436318zM813.493835 443.89723c-9.305691 0-17.352235 6.980267-18.321578 16.479827-0.969343 10.081165 6.301727 19.000118 16.382892 20.066395 65.627305 6.591531 111.478218 59.039771 111.478218 127.574105l0 14.73401c-1.453015 75.126864-48.566072 105.17749-50.503559 106.3417l-2.230488 1.550948c-1.066277 0.871409-26.560992 22.005081-47.304727 48.467939-8.725084 11.050508-16.189024 22.68462-22.877489 33.055588-4.652845 7.077202-10.566836 16.382892-14.05647 21.133671-1.744817-3.489634-3.780437-8.240413-5.42832-12.117784-10.081165-24.0407-26.948729-64.269225-76.871681-64.269225l-34.219799 0c-31.406506 0-44.978305-0.581606-63.978423-16.382892-3.3927-2.811094-7.560874-4.168174-11.632113-4.168174-5.234451 0-10.469901 2.229488-14.153404 6.688465-6.397662 7.755742-5.331385 19.290921 2.520291 25.688583 29.954691 24.71924 55.254338 24.71924 87.243649 24.71924l34.413668 0c23.556029 0 32.280114 16.575762 42.84695 41.779474 7.367005 17.449169 15.606419 37.321496 36.932959 37.321496 6.10686 0 12.407588-1.938686 18.611381-5.816856 9.791361-6.009925 17.546104-18.12671 28.306808-34.799406 6.203794-9.597493 13.280995-20.551066 20.938803-30.244494 16.381893-20.841869 36.738891-38.582641 41.003999-42.169409 9.98523-6.591531 65.045699-46.820056 66.790516-136.390127l0-15.219681c0-87.922189-59.423511-155.396241-144.436672-163.926458C814.657047 443.89723 814.075441 443.89723 813.493835 443.89723L813.493835 443.89723 813.493835 443.89723zM421.865759 591.247926c-92.866836 0-168.380838-60.683656-168.380838-135.426981 0-10.082164 8.142479-18.321578 18.321578-18.321578 10.081165 0 18.320978 8.142479 18.320978 18.321578 0 54.48386 59.131709 98.783825 131.835216 98.783825 72.702907 0 131.834816-44.299765 131.834816-98.783825 0-10.082164 8.142479-18.321578 18.321578-18.321578 10.178099 0 18.320579 8.142479 18.320579 18.321578C590.246797 530.564269 514.732196 591.247926 421.865759 591.247926L421.865759 591.247926z" p-id="12932" fill="#999999"></path></svg>