<?xml version="1.0" standalone="no"?><!DOCTYPE svg PUBLIC "-//W3C//DTD SVG 1.1//EN" "http://www.w3.org/Graphics/SVG/1.1/DTD/svg11.dtd"><svg width="200" height="200" viewBox="0 0 200 200" version="1.1" xmlns="http://www.w3.org/2000/svg" xmlns:xlink="http://www.w3.org/1999/xlink"><defs><style type="text/css"><![CDATA[
@font-face { font-family: ifont; src: url("//at.alicdn.com/t/font_1442373896_4754455.eot?#iefix") format("embedded-opentype"), url("//at.alicdn.com/t/font_1442373896_4754455.woff") format("woff"), url("//at.alicdn.com/t/font_1442373896_4754455.ttf") format("truetype"), url("//at.alicdn.com/t/font_1442373896_4754455.svg#ifont") format("svg"); }

]]></style></defs><g class="transform-group"><g transform="scale(0.1953125, 0.1953125)"><path d="M298.666667 181.333333 298.666667 117.333333 725.333333 117.333333 725.333333 181.333333 298.666667 181.333333ZM724.245333 234.666667C724.949333 241.685333 725.333333 248.789333 725.333333 256 725.333333 325.717333 691.733333 387.434667 640 426.368L640 917.333333 384 917.333333 384 426.368C332.266667 387.434667 298.666667 325.717333 298.666667 256 298.666667 248.789333 299.050667 241.685333 299.733333 234.666667L724.245333 234.666667ZM512 576C535.573333 576 554.666667 556.906667 554.666667 533.333333 554.666667 509.76 535.573333 490.666667 512 490.666667 488.426667 490.666667 469.333333 509.76 469.333333 533.333333 469.333333 556.906667 488.426667 576 512 576Z" fill="#ffffff"></path></g></g></svg>