<?xml version="1.0" standalone="no"?><!DOCTYPE svg PUBLIC "-//W3C//DTD SVG 1.1//EN" "http://www.w3.org/Graphics/SVG/1.1/DTD/svg11.dtd"><svg t="1485233135087" class="icon" style="" viewBox="0 0 1024 1024" version="1.1" xmlns="http://www.w3.org/2000/svg" p-id="6798" xmlns:xlink="http://www.w3.org/1999/xlink" width="200" height="200"><defs><style type="text/css"></style></defs><path d="M995.261 478.337c-0.468-16.658-3.777-28.947-15.596-45.845-2.246-3.426-362.974-388.933-362.974-388.933-25.051-26.704-58.099-39.494-91.299-39.524v-0.266c-0.477-0.030-1.068 0.149-1.658 0.149s-1.181-0.178-1.772-0.149v0.266c-33.082 0.030-66.163 12.821-91.331 39.524 0 0-360.606 385.508-362.851 388.933-11.815 16.897-15.123 29.186-15.597 45.845 0 0 0 5.79 0 6.262 0 52.577 42.654 95.296 95.233 95.296h22.802v341.76c0 55.651 49.977 100.726 111.54 100.726 61.559 0 111.419-45.074 111.419-100.726v-341.761h260.97v341.76c0 55.651 49.983 100.726 111.542 100.726s111.415-45.074 111.415-100.726v-341.76h22.807c52.697 0 95.349-42.716 95.349-95.296 0-0.474-0.116-0.945-0.116-1.417l0.115-4.845z" p-id="6799" fill="#bbbbbb"></path><path d="M853.241 133.826l0.593 0.739 71.721 75.796c10.16 10.691 26.942 11.166 37.573 1.061 0.117-0.058 0.117-0.177 0.357-0.294l0.942-0.886c3.189-3.307 5.083-6.26 6.265-11.934 0.236-1.062 0.353-2.246 0.467-3.366 0.237-1.242 0.471-2.421 0.592-3.901l8.275-140.663c0.591-10.251-3.191-19.376-9.451-26.112v-0.059c-0.122-0.089-0.241-0.206-0.359-0.294-0.118-0.118-0.235-0.237-0.355-0.386v0.030c-6.379-6.674-15.243-10.929-25.519-10.898l-140.959 0.354c-1.535 0.059-2.598 0.149-3.899 0.267-1.185 0.087-2.25 0.118-3.309 0.323-5.79 0.855-8.861 2.541-12.407 5.643l-0.946 0.946c0 0.058-0.237 0.147-0.237 0.206-10.628 10.133-11.107 26.911-1.065 37.603l71.724 75.825z" p-id="6800" fill="#bbbbbb"></path></svg>