<?xml version="1.0" standalone="no"?><!DOCTYPE svg PUBLIC "-//W3C//DTD SVG 1.1//EN" "http://www.w3.org/Graphics/SVG/1.1/DTD/svg11.dtd"><svg width="200" height="200" viewBox="0 0 200 200" version="1.1" xmlns="http://www.w3.org/2000/svg" xmlns:xlink="http://www.w3.org/1999/xlink"><defs><style type="text/css"><![CDATA[
@font-face { font-family: ifont; src: url("//at.alicdn.com/t/font_1442373896_4754455.eot?#iefix") format("embedded-opentype"), url("//at.alicdn.com/t/font_1442373896_4754455.woff") format("woff"), url("//at.alicdn.com/t/font_1442373896_4754455.ttf") format("truetype"), url("//at.alicdn.com/t/font_1442373896_4754455.svg#ifont") format("svg"); }

]]></style></defs><g class="transform-group"><g transform="scale(0.1953125, 0.1953125)"><path d="M384 170.666c0-70.688 57.312-128 128-128s128 57.312 128 128c0 70.688-57.312 128-128 128s-128-57.312-128-128zM655.52 283.146c0-70.688 57.312-128 128-128s128 57.312 128 128c0 70.688-57.312 128-128 128s-128-57.312-128-128zM832 554.666c0-35.36 28.64-64 64-64s64 28.64 64 64c0 35.36-28.64 64-64 64s-64-28.64-64-64zM719.52 826.186c0-35.36 28.64-64 64-64s64 28.64 64 64c0 35.36-28.64 64-64 64s-64-28.64-64-64zM448 938.666c0 0 0 0 0 0 0-35.36 28.64-64 64-64s64 28.64 64 64c0 0 0 0 0 0 0 35.36-28.64 64-64 64s-64-28.64-64-64zM176.48 826.186c0 0 0 0 0 0 0-35.36 28.64-64 64-64s64 28.64 64 64c0 0 0 0 0 0 0 35.36-28.64 64-64 64s-64-28.64-64-64zM144.48 283.146c0 0 0 0 0 0 0-53.024 42.976-96 96-96s96 42.976 96 96c0 0 0 0 0 0 0 53.024-42.976 96-96 96s-96-42.976-96-96zM56 554.666c0-39.776 32.224-72 72-72s72 32.224 72 72c0 39.776-32.224 72-72 72s-72-32.224-72-72z" fill="#777777"></path></g></g></svg>