<?xml version="1.0" standalone="no"?><!DOCTYPE svg PUBLIC "-//W3C//DTD SVG 1.1//EN" "http://www.w3.org/Graphics/SVG/1.1/DTD/svg11.dtd"><svg width="211.9140625" height="200" viewBox="0 0 211.9140625 200" version="1.1" xmlns="http://www.w3.org/2000/svg" xmlns:xlink="http://www.w3.org/1999/xlink"><defs><style type="text/css"><![CDATA[
@font-face { font-family: ifont; src: url("//at.alicdn.com/t/font_1442373896_4754455.eot?#iefix") format("embedded-opentype"), url("//at.alicdn.com/t/font_1442373896_4754455.woff") format("woff"), url("//at.alicdn.com/t/font_1442373896_4754455.ttf") format("truetype"), url("//at.alicdn.com/t/font_1442373896_4754455.svg#ifont") format("svg"); }

]]></style></defs><g class="transform-group"><g transform="scale(0.1953125, 0.1953125)"><path d="M270.783937 663.230274M546.989411 696.94403c-62.90414 0-114.080059 51.182427-114.080059 114.086567s51.175919 114.080059 114.080059 114.080059c62.917157 0 114.093076-51.175919 114.093076-114.080059S609.906568 696.94403 546.989411 696.94403zM548.199982 464.651048c-84.408049 0-167.247563 38.217601-239.5499 110.526447-9.365655 9.359147-9.365655 24.543354 0 33.909009 9.365655 9.359147 24.543354 9.359147 33.909009 0 63.112411-63.118919 134.223702-96.47471 205.634383-96.47471 71.430206 0 142.534989 33.355791 205.634383 96.47471 4.69259 4.679573 10.823547 7.009597 16.961013 7.009597 6.124449 0 12.268423-2.330024 16.947996-7.009597 9.359147-9.365655 9.359147-24.549862 0-33.909009C715.441036 502.868649 632.608031 464.651048 548.199982 464.651048zM548.199982 234.896361c-136.319422 0-267.249851 58.862395-378.609379 170.228431-9.365655 9.365655-9.365655 24.543354 0 33.909009 9.359147 9.372164 24.543354 9.372164 33.9025 0 102.182618-102.182618 221.378316-156.189711 344.70037-156.189711 123.322054 0 242.537277 54.007093 344.706878 156.189711 4.679573 4.679573 10.817039 7.029123 16.954504 7.029123 6.124449 0 12.268423-2.349549 16.947996-7.029123 9.359147-9.359147 9.359147-24.543354 0-33.909009C815.443324 293.765264 684.519405 234.896361 548.199982 234.896361zM1055.377223 225.712942C919.181461 89.51718 738.533006 14.507328 546.703039 14.507328c-191.836475 0-372.497947 75.003343-508.6872 211.205614-9.365655 9.365655-9.365655 24.543354 0 33.9025 9.372164 9.365655 24.543354 9.365655 33.909009 0C199.054343 132.479439 367.668679 62.468074 546.703039 62.468074c179.021343 0 347.642188 70.017873 474.778192 197.153876 4.686082 4.686082 10.817039 7.022614 16.954504 7.022614s12.268423-2.336532 16.947996-7.022614C1064.742878 250.262804 1064.742878 235.078597 1055.377223 225.712942zM911.117495 786.25294c-64.160271 0-116.351507 52.204253-116.351507 116.364524s52.197745 116.364524 116.351507 116.364524c64.173287 0 116.377541-52.204253 116.377541-116.364524S975.297291 786.25294 911.117495 786.25294zM904.368236 829.000419c0-1.705213 3.032936-3.078495 6.762276-3.078495s6.762276 1.373282 6.762276 3.078495l0 107.805916c0 1.698705-3.032936 3.085004-6.762276 3.085004s-6.762276-1.386299-6.762276-3.085004L904.368236 829.000419zM911.130512 976.501354c-7.224376 0-13.07547-5.851094-13.07547-13.07547s5.844585-13.07547 13.07547-13.07547c7.217868 0 13.07547 5.851094 13.07547 13.07547S918.354888 976.501354 911.130512 976.501354z" fill="#666666"></path></g></g></svg>