<?xml version="1.0" standalone="no"?><!DOCTYPE svg PUBLIC "-//W3C//DTD SVG 1.1//EN" "http://www.w3.org/Graphics/SVG/1.1/DTD/svg11.dtd"><svg t="1485238318944" class="icon" style="" viewBox="0 0 1024 1024" version="1.1" xmlns="http://www.w3.org/2000/svg" p-id="11891" xmlns:xlink="http://www.w3.org/1999/xlink" width="200" height="200"><defs><style type="text/css"></style></defs><path d="M562.918834 279.437451c0-12.81562-9.493695-24.256651-22.316258-24.256651H332.491064c-12.81562 0-24.162929 11.441031-24.162928 24.256651v484.924746h254.594169v-484.924746z m-152.756502 268.55181c0 2.447186-1.982047 4.429234-4.425763 4.429234h-31.240677a4.429234 4.429234 0 0 1-4.429234-4.429234v-31.240678c0-2.447186 1.985519-4.429234 4.429234-4.429234h31.240677c2.443715 0 4.425763 1.982047 4.425763 4.429234v31.240678z m0-79.559593c0 2.443715-1.982047 4.425763-4.425763 4.425763h-31.240677a4.429234 4.429234 0 0 1-4.429234-4.425763v-31.244149c0-2.443715 1.985519-4.425763 4.429234-4.425763h31.240677c2.443715 0 4.425763 1.982047 4.425763 4.425763v31.244149z m0-89.105356c0 2.443715-1.982047 4.425763-4.425763 4.425763h-31.240677a4.429234 4.429234 0 0 1-4.429234-4.425763v-31.244149c0-2.443715 1.985519-4.425763 4.429234-4.425763h31.240677c2.443715 0 4.425763 1.982047 4.425763 4.425763v31.244149z m91.01798 168.664949c0 2.447186-1.982047 4.429234-4.429234 4.429234h-31.240678a4.425763 4.425763 0 0 1-4.425763-4.429234v-31.240678c0-2.447186 1.982047-4.429234 4.425763-4.429234h31.240678c2.447186 0 4.429234 1.982047 4.429234 4.429234v31.240678z m0-79.559593c0 2.443715-1.982047 4.425763-4.429234 4.425763h-31.240678a4.425763 4.425763 0 0 1-4.425763-4.425763v-31.244149c0-2.443715 1.982047-4.425763 4.425763-4.425763h31.240678c2.447186 0 4.429234 1.982047 4.429234 4.425763v31.244149z m0-89.105356c0 2.443715-1.982047 4.425763-4.429234 4.425763h-31.240678a4.425763 4.425763 0 0 1-4.425763-4.425763v-31.244149c0-2.443715 1.982047-4.425763 4.425763-4.425763h31.240678c2.447186 0 4.429234 1.982047 4.429234 4.425763v31.244149zM733.496407 766.83021v-307.977546h-143.845966v308.036556l89.667688-0.041654c21.809464-0.003471 42.719892-0.010414 54.178278-0.017356z" fill="#ffffff" p-id="11892"></path><path d="M512 0C229.23021 0 0 229.23021 0 512S229.23021 1024 512 1024 1024 794.76979 1024 512 794.76979 0 512 0z m281.325776 790.798753a2.207675 2.207675 0 0 1-2.211145 2.207674H232.888841a2.207675 2.207675 0 0 1-2.214617-2.207674v-19.764936c0-1.221858 0.989288-2.207675 2.214617-2.207675h50.613369V279.437451c0-26.245641 22.743214-48.447349 48.988854-48.447349h208.114983c26.249112 0 46.500014 22.201708 46.500014 48.447349v155.227986h156.133966c8.948719 0 14.440136 7.775458 14.440136 17.296922v316.860312h33.434468c1.221858 0 2.211146 0.985817 2.211145 2.207675v19.768407z" fill="#ffffff" p-id="11893"></path></svg>