<?xml version="1.0" standalone="no"?><!DOCTYPE svg PUBLIC "-//W3C//DTD SVG 1.1//EN" "http://www.w3.org/Graphics/SVG/1.1/DTD/svg11.dtd"><svg width="275" height="200" viewBox="0 0 275 200" version="1.1" xmlns="http://www.w3.org/2000/svg" xmlns:xlink="http://www.w3.org/1999/xlink"><defs><style type="text/css"><![CDATA[
@font-face { font-family: ifont; src: url("//at.alicdn.com/t/font_1442373896_4754455.eot?#iefix") format("embedded-opentype"), url("//at.alicdn.com/t/font_1442373896_4754455.woff") format("woff"), url("//at.alicdn.com/t/font_1442373896_4754455.ttf") format("truetype"), url("//at.alicdn.com/t/font_1442373896_4754455.svg#ifont") format("svg"); }

]]></style></defs><g class="transform-group"><g transform="scale(0.1953125, 0.1953125)"><path d="M192 512 0 512 256 768 512 512 320 512C320 300.16 492.16 128 704 128 768.64 128 830.08 144 883.2 172.8L976.64 79.36C897.92 29.44 804.48 0 704 0 421.12 0 192 229.12 192 512L192 512ZM1088 512C1088 723.84 915.84 896 704 896 639.36 896 577.92 880 524.8 851.2L431.36 944.64C510.08 994.56 603.52 1024 704 1024 986.88 1024 1216 794.88 1216 512L1408 512 1152 256 896 512 1088 512 1088 512Z" fill="#ffffff"></path></g></g></svg>