<?xml version="1.0" standalone="no"?><!DOCTYPE svg PUBLIC "-//W3C//DTD SVG 1.1//EN" "http://www.w3.org/Graphics/SVG/1.1/DTD/svg11.dtd"><svg width="204.8828125" height="200" viewBox="0 0 204.8828125 200" version="1.1" xmlns="http://www.w3.org/2000/svg" xmlns:xlink="http://www.w3.org/1999/xlink"><defs><style type="text/css"><![CDATA[
@font-face { font-family: ifont; src: url("//at.alicdn.com/t/font_1442373896_4754455.eot?#iefix") format("embedded-opentype"), url("//at.alicdn.com/t/font_1442373896_4754455.woff") format("woff"), url("//at.alicdn.com/t/font_1442373896_4754455.ttf") format("truetype"), url("//at.alicdn.com/t/font_1442373896_4754455.svg#ifont") format("svg"); }

]]></style></defs><g class="transform-group"><g transform="scale(0.1953125, 0.1953125)"><path d="M1047.033628 409.6 933.642695 409.6 933.642695 182.044444C933.642695 182.044444 944.974962 117.577956 865.603584 113.777778L638.844473 113.777778 638.844473 0 933.642695 0C933.642695 0 1043.256206 15.177956 1047.033628 113.777778 1050.811051 212.3776 1047.033628 409.6 1047.033628 409.6ZM115.466695 182.044444 115.466695 409.6 1.688917 409.6C1.688917 409.6-2.11126 212.3776 1.688917 113.777778 5.489095 15.177956 115.466695 0 115.466695 0L411.288917 0 411.288917 113.777778 183.733362 113.777778C104.088917 117.577956 115.466695 182.044444 115.466695 182.044444ZM116.741006 614.4 116.741006 841.955556C116.741006 841.955556 105.363228 906.422044 184.916651 910.222222L412.153628 910.222222 412.153628 1024 116.741006 1024C116.741006 1024 6.89994 1008.822044 3.099762 910.222222-0.67766 811.6224 3.099762 614.4 3.099762 614.4L116.741006 614.4ZM1.688917 477.866667 1048.444473 477.866667 1048.444473 546.133333 1.688917 546.133333 1.688917 477.866667ZM933.801984 841.955556 933.801984 614.4 1047.033628 614.4C1047.033628 614.4 1050.811051 811.6224 1047.033628 910.222222 1043.256206 1008.822044 933.801984 1024 933.801984 1024L639.390606 1024 639.390606 910.222222 865.853895 910.222222C945.111495 906.422044 933.801984 841.955556 933.801984 841.955556Z" fill="#ffffff"></path></g></g></svg>