<?xml version="1.0" standalone="no"?><!DOCTYPE svg PUBLIC "-//W3C//DTD SVG 1.1//EN" "http://www.w3.org/Graphics/SVG/1.1/DTD/svg11.dtd"><svg t="1485238620407" class="icon" style="" viewBox="0 0 1024 1024" version="1.1" xmlns="http://www.w3.org/2000/svg" p-id="19402" xmlns:xlink="http://www.w3.org/1999/xlink" width="200" height="200"><defs><style type="text/css"></style></defs><path d="M619.407754 508.824681l0.427742 0.520863-30.055526 24.526603c0.052189 0.25992 0.125867 0.499373 0.291642 0.707105l7.257288 8.702196 30.335912-25.254174-7.267521-8.713452C620.137371 509.001713 619.783307 508.84617 619.407754 508.824681zM511.999488 64.275909c-247.264547 0-447.724091 200.449311-447.724091 447.724091 0 247.264547 200.460568 447.724091 447.724091 447.724091s447.724091-200.460568 447.724091-447.724091C959.723579 264.72522 759.264035 64.275909 511.999488 64.275909zM497.21169 266.816858c24.182772 0 43.787272 19.602454 43.787272 43.795459 0 19.800975-13.149485 36.508495-31.181163 41.921785-2.508123 0.760317-5.110391 1.291412-7.766894 1.582031-1.591241 0.177032-3.204995 0.281409-4.839215 0.281409-24.182772 0-43.795459-19.61371-43.795459-43.786249C453.416232 286.419312 473.028918 266.816858 497.21169 266.816858zM346.960665 490.26293l-12.128225-24.641213c-1.509377-3.060709-0.312108-6.78759 2.716878-8.379854l117.271914-61.84658c-13.668301 23.641443-18.570961 50.281173-20.258393 64.501036l-79.482239 33.396621C351.998401 494.593562 348.439342 493.27145 346.960665 490.26293zM619.938849 757.183142l-57.017598 0-63.628156-92.215238 39.476083-60.347436 81.199347 146.431024C621.074719 753.017262 620.980575 755.329934 619.938849 757.183142zM730.411917 564.289923l-106.163925 88.425935c-3.413749 2.851954-8.504698 2.394537-11.356652-1.041726l-54.518684-65.439408c-2.851954-3.423983-2.384303-8.513908 1.041726-11.367909l26.971281-22.464641-7.274684-8.733918c-2.656503-3.206018-3.925403-7.267521-3.551896-11.420097 0.272199-3.007497 1.427512-5.870708 3.269463-8.233522l-33.781384-37.071314-18.479887-20.278859 0 99.646488c0 4.497431-0.583285 8.974395-1.666966 13.292748-1.560542 6.236028-4.16281 12.181437-7.817036 17.542538l-32.011064 47.210231-76.53614 112.827695-53.103452 0c-0.957815-1.790786-1.030469-3.977591-0.041956-5.881964l98.855472-189.737342c0.468674-0.895393 0.718361-1.895163 0.718361-2.916423l0-98.574063c0.343831-2.707668 0.831948-5.871731 1.488911-9.390881 2.289136-12.335956 6.703679-28.78458 15.063067-43.681872 7.714705-13.751189 18.801205-26.118867 34.697243-32.67826 0.593518 0.135076 1.187035 0.281409 1.780553 0.468674 5.600555 1.779529 10.262738 5.704932 12.948917 10.94119l89.363284 111.712291c2.63399-1.842974 5.756097-2.89391 8.983605-2.89391 4.674463 0 9.067516 2.060939 12.044314 5.65172l7.257288 8.703219 26.971281-22.464641c3.435239-2.841721 8.526187-2.384303 11.367909 1.040702l54.518684 65.449641C734.305597 556.357254 733.837946 561.437969 730.411917 564.289923z" p-id="19403" fill="#ffffff"></path></svg>