<?xml version="1.0" standalone="no"?><!DOCTYPE svg PUBLIC "-//W3C//DTD SVG 1.1//EN" "http://www.w3.org/Graphics/SVG/1.1/DTD/svg11.dtd"><svg t="1495509810590" class="icon" style="" viewBox="0 0 1024 1024" version="1.1" xmlns="http://www.w3.org/2000/svg" p-id="6238" xmlns:xlink="http://www.w3.org/1999/xlink" width="200" height="200"><defs><style type="text/css"></style></defs><path d="M512 0C229.2352 0 0 229.2352 0 512s229.2352 512 512 512 512-229.2352 512-512S794.7648 0 512 0zM304.9216 275.2896c48.2304 0 87.3344 38.6688 87.3344 86.3872 0 47.7056-39.104 86.3872-87.3344 86.3872-48.2304 0-87.3216-38.6816-87.3216-86.3872C217.6 313.9584 256.704 275.2896 304.9216 275.2896zM683.3536 793.6c0 21.2096-17.1904 38.4-38.4 38.4L294.8096 832c-21.2096 0-38.4-17.1904-38.4-38.4l0-38.3872c0-21.2096 17.1904-38.4 38.4-38.4l97.4464 0L237.0048 457.664c0 0 26.2656 23.0912 48.5248 28.8 22.2464 5.696 63.9744 7.2832 106.7264-38.4l155.2512 268.7616 97.4464 0c21.2096 0 38.4 17.1904 38.4 38.4L683.3536 793.6zM810.7008 417.4976l-111.7312 75.2768c-8.8064 5.9392-20.8256 3.6736-26.816-5.056-2.6624-3.8656-3.4432-8.3456-2.9952-12.672l-44.1984-51.6992c-4.352 3.4176-9.7536 5.5296-15.7184 5.5296l-36.1216 0c-14.144 0-25.6-11.4688-25.6-25.6l0 6.4-126.144 0 0-1.024c5.9904-12.1088 9.7024-28.6848 9.7024-46.976 0-18.304-3.712-34.8672-9.7024-46.976l0-1.0112 126.144 0 0 6.4c0-14.1312 11.456-25.6 25.6-25.6l34.7392 0 58.688-68.5824c-0.448-4.3392 0.3328-8.832 3.008-12.7232 6.0288-8.768 18.0992-11.0336 26.9568-5.0688l112.32 75.584c8.8576 5.9648 11.1616 17.9072 5.12 26.6624-6.0288 8.768-18.0992 11.0336-26.9568 5.0688l-92.7872-62.4384-59.3792 69.3888 0 53.3504 61.8368 72.3328 92.3008-62.1824c8.8064-5.9392 20.8128-3.6864 26.816 5.056S819.5072 411.5584 810.7008 417.4976z" p-id="6239" fill="#ffffff"></path><path d="M304.9216 419.264c32.1536 0 58.2272-25.7792 58.2272-57.5872s-26.0736-57.6-58.2272-57.6c-32.1536 0-58.2144 25.792-58.2144 57.6S272.7808 419.264 304.9216 419.264zM304.9216 332.8768c16.0768 0 29.1072 12.8896 29.1072 28.8 0 15.8976-13.0304 28.8-29.1072 28.8-16.0768 0-29.1072-12.8896-29.1072-28.8C275.8144 345.7664 288.8448 332.8768 304.9216 332.8768z" p-id="6240" fill="#ffffff"></path></svg>