<?xml version="1.0" standalone="no"?><!DOCTYPE svg PUBLIC "-//W3C//DTD SVG 1.1//EN" "http://www.w3.org/Graphics/SVG/1.1/DTD/svg11.dtd"><svg t="1486459051014" class="icon" style="" viewBox="0 0 1024 1024" version="1.1" xmlns="http://www.w3.org/2000/svg" p-id="23716" xmlns:xlink="http://www.w3.org/1999/xlink" width="200" height="200"><defs><style type="text/css"></style></defs><path d="M733.6 288.96 290.4 288.96c-35.52 0-64.384 28.864-64.384 64.384l0 317.28c0 35.52 28.864 64.416 64.384 64.416l443.2 0c35.52 0 64.384-28.896 64.384-64.416l0-317.28C797.984 317.824 769.12 288.96 733.6 288.96zM391.36 402.752c37.92 0 68.768 30.848 68.768 68.768s-30.848 68.768-68.768 68.768c-37.92 0-68.768-30.848-68.768-68.768S353.44 402.752 391.36 402.752zM697.184 656.704 323.648 656.704c-7.84 0-14.208-6.368-14.208-14.208s6.368-14.208 14.208-14.208l373.536 0c7.84 0 14.208 6.368 14.208 14.208S705.024 656.704 697.184 656.704zM697.184 546.24l-172.32 0c-7.84 0-14.208-6.368-14.208-14.208s6.368-14.208 14.208-14.208l172.32 0c7.84 0 14.208 6.368 14.208 14.208S705.024 546.24 697.184 546.24zM697.184 431.136l-172.32 0c-7.84 0-14.208-6.368-14.208-14.208 0-7.84 6.368-14.208 14.208-14.208l172.32 0c7.84 0 14.208 6.368 14.208 14.208C711.392 424.8 705.024 431.136 697.184 431.136z" p-id="23717" fill="#ffffff"></path><path d="M512 28.896C245.632 28.896 28.896 245.632 28.896 512S245.632 995.104 512 995.104 995.104 778.368 995.104 512 778.368 28.896 512 28.896zM512 963.104C263.296 963.104 60.896 760.736 60.896 512S263.296 60.896 512 60.896 963.104 263.296 963.104 512 760.704 963.104 512 963.104z" p-id="23718" fill="#ffffff"></path></svg>