<?xml version="1.0" standalone="no"?><!DOCTYPE svg PUBLIC "-//W3C//DTD SVG 1.1//EN" "http://www.w3.org/Graphics/SVG/1.1/DTD/svg11.dtd"><svg t="1486459266936" class="icon" style="" viewBox="0 0 1024 1024" version="1.1" xmlns="http://www.w3.org/2000/svg" p-id="34291" xmlns:xlink="http://www.w3.org/1999/xlink" width="200" height="200"><defs><style type="text/css"></style></defs><path d="M517.709537 956.449511c-60.122309 0-118.452809-11.778254-173.369559-35.005258-53.03796-22.433942-100.668771-54.547337-141.569296-95.446839s-73.012897-88.531336-95.445816-141.569296c-23.228027-54.91675-35.005258-113.24725-35.005258-173.369559 0-60.122309 11.777231-118.452809 35.005258-173.369559 22.432918-53.03796 54.546314-100.668771 95.445816-141.569296s88.531336-73.012897 141.569296-95.445816c54.917774-23.228027 113.24725-35.005258 173.369559-35.005258 60.122309 0 118.452809 11.777231 173.369559 35.005258 53.03796 22.432918 100.668771 54.546314 141.569296 95.445816s73.013921 88.531336 95.446839 141.569296c23.227004 54.917774 35.005258 113.24725 35.005258 173.369559s-11.778254 118.452809-35.005258 173.369559c-22.433942 53.03796-54.547337 100.668771-95.446839 141.569296s-88.531336 73.013921-141.569296 95.446839C636.162346 944.671257 577.831846 956.449511 517.709537 956.449511zM517.709537 88.180342c-233.175667 0-422.878217 189.70255-422.878217 422.878217S284.53387 933.936775 517.709537 933.936775s422.878217-189.70255 422.878217-422.878217S750.885204 88.180342 517.709537 88.180342z" p-id="34292" fill="#ffffff"></path><path d="M779.744485 761.093195 656.713404 761.093195l0-477.556537L370.919333 283.536658l0 477.556537L255.674589 761.093195 255.674589 566.004985l92.733031 0L348.40762 261.023922l330.819544 0 0 182.036963 100.518345 0L779.745509 761.093195zM679.226141 738.580458l78.005608 0L757.231749 465.573621l-78.005608 0L679.226141 738.580458zM278.187325 738.580458l70.220295 0L348.40762 588.517721l-70.220295 0L278.187325 738.580458z" p-id="34293" fill="#ffffff"></path><path d="M615.390253 761.093195 405.138692 761.093195 405.138692 592.006172l210.251561 0L615.390253 761.093195zM427.651428 738.580458l165.226089 0L592.877517 614.518908 427.651428 614.518908 427.651428 738.580458z" p-id="34294" fill="#ffffff"></path><path d="M515.008009 749.836827" p-id="34295" fill="#ffffff"></path><path d="M403.877979 413.117922l54.385655 0 0 22.512736-54.385655 0 0-22.512736Z" p-id="34296" fill="#ffffff"></path><path d="M403.877979 478.522538l54.385655 0 0 22.512736-54.385655 0 0-22.512736Z" p-id="34297" fill="#ffffff"></path><path d="M403.877979 543.928177l54.385655 0 0 22.512736-54.385655 0 0-22.512736Z" p-id="34298" fill="#ffffff"></path><path d="M484.263797 413.117922l54.373375 0 0 22.512736-54.373375 0 0-22.512736Z" p-id="34299" fill="#ffffff"></path><path d="M484.263797 478.522538l54.373375 0 0 22.512736-54.373375 0 0-22.512736Z" p-id="34300" fill="#ffffff"></path><path d="M484.263797 543.928177l54.373375 0 0 22.512736-54.373375 0 0-22.512736Z" p-id="34301" fill="#ffffff"></path><path d="M561.495786 413.117922l54.374398 0 0 22.512736-54.374398 0 0-22.512736Z" p-id="34302" fill="#ffffff"></path><path d="M561.495786 478.522538l54.374398 0 0 22.512736-54.374398 0 0-22.512736Z" p-id="34303" fill="#ffffff"></path><path d="M561.495786 543.928177l54.374398 0 0 22.512736-54.374398 0 0-22.512736Z" p-id="34304" fill="#ffffff"></path><path d="M503.75164 603.26254l22.512736 0 0 146.574287-22.512736 0 0-146.574287Z" p-id="34305" fill="#ffffff"></path><path d="M347.145883 738.580458l336.50708 0 0 22.512736-336.50708 0 0-22.512736Z" p-id="34306" fill="#ffffff"></path></svg>