<?xml version="1.0" standalone="no"?><!DOCTYPE svg PUBLIC "-//W3C//DTD SVG 1.1//EN" "http://www.w3.org/Graphics/SVG/1.1/DTD/svg11.dtd"><svg t="1486459134647" class="icon" style="" viewBox="0 0 1024 1024" version="1.1" xmlns="http://www.w3.org/2000/svg" p-id="27696" xmlns:xlink="http://www.w3.org/1999/xlink" width="200" height="200"><defs><style type="text/css"></style></defs><path d="M511.998465 0C229.23338 0 0.004605 229.230822 0.004605 511.998977c0 282.773272 229.227752 512.001023 511.99386 512.001023 282.769178 0 511.994883-229.227752 511.994883-512.001023C1023.994372 229.230822 794.767644 0 511.998465 0zM511.998465 987.596905c-262.660188 0-475.589742-212.930577-475.589742-475.597929 0-262.663258 212.929554-475.594859 475.589742-475.594859 262.663258 0 475.590765 212.9316 475.590765 475.594859C987.590254 774.665305 774.662747 987.596905 511.998465 987.596905z" p-id="27697" fill="#ffffff"></path><path d="M753.094522 722.842009l-42.653449 0L710.441073 524.171204c33.098839-4.199649 58.756195-33.342386 58.966996-75.453483L249.863233 448.717721c0.210801 41.620933 25.273616 70.571289 57.81066 75.296917l0 198.827371-41.498136 0c-9.013281 0-16.32992 7.439436-16.32992 16.593933 0 9.17087 7.316639 16.59291 16.32992 16.59291l486.919788 0c9.016351 0 16.330944-7.42204 16.330944-16.59291C769.425466 730.280422 762.110873 722.842009 753.094522 722.842009zM432.572508 722.842009l-92.237751 0L340.334757 520.532327c19.426445-7.228635 34.671661-23.296589 41.006949-43.425022 7.387247 23.541159 26.989701 41.533952 51.230802 46.330188L432.572508 722.842009zM677.798629 722.842009 465.232348 722.842009 465.232348 521.704013c21.055548-6.563486 37.71702-23.313985 44.403303-44.597731 8.664334 27.602661 34.111912 47.589878 64.146972 47.589878 30.052456 0 55.483662-19.98824 64.145949-47.589878 6.213515 19.72525 20.968567 35.565007 39.871079 43.004443L677.799652 722.842009zM694.041568 288.658306c0-9.171893-7.315616-16.59291-16.32992-16.59291L340.001159 272.065396c-9.031701 0-16.32992 7.419993-16.32992 16.59291l0 16.591887 370.371352 0L694.042591 288.658306zM388.115993 575.403029l0 66.018599c0 4.324492 3.447519 7.824199 7.701402 7.824199 4.251837 0 7.700379-3.499707 7.700379-7.824199l0-66.018599c0-4.324492-3.448542-7.825222-7.700379-7.825222C391.563512 567.576783 388.115993 571.078537 388.115993 575.403029zM607.878163 572.146868c-3.01159-3.045359-7.894807-3.045359-10.886955 0l-62.747089 63.74379c-3.009544 3.062755-3.009544 8.015557 0 11.078313 3.009544 3.045359 7.876388 3.045359 10.886955 0l62.747089-63.761186C610.871333 580.146053 610.871333 575.208601 607.878163 572.146868zM608.665085 596.492346l-50.459229 51.264571c-1.734504 1.768273-1.734504 4.637624 0 6.405897 1.74883 1.769296 4.567016 1.769296 6.300496 0l50.460252-51.263547c1.732457-1.769296 1.732457-4.638647 0-6.40692C613.215728 594.725096 610.397542 594.725096 608.665085 596.492346zM584.827167 572.268642c1.732457-1.76725 1.732457-4.638647 0-6.404873-1.750877-1.769296-4.569062-1.769296-6.30152 0l-50.459229 51.280944c-1.732457 1.768273-1.732457 4.620227 0 6.388501 1.732457 1.768273 4.568039 1.768273 6.300496 0L584.827167 572.268642zM765.261633 432.615998c-2.223644-6.126534-5.27105-11.83249-9.016351-16.977673l-60.575634-96.701412L323.497277 318.936913 262.674003 416.0763l0.035816 0c-3.605108 5.040806-6.545066 10.589173-8.698103 16.540721L765.261633 432.617022zM643.127991 337.717651c3.570315-2.363837 8.331759-1.331321 10.659781 2.292206l40.186258 63.009056c2.309602 3.623527 1.295506 8.453533-2.275833 10.816347-3.552919 2.345418-8.331759 1.312902-10.641361-2.309602l-40.186258-62.99166C638.542556 344.910471 639.574049 340.062046 643.127991 337.717651zM569.022203 337.717651c3.571339-2.363837 8.330736-1.331321 10.642384 2.292206l40.201607 63.009056c2.311649 3.623527 1.295506 8.453533-2.27481 10.816347-3.570315 2.345418-8.332782 1.312902-10.642384-2.309602l-40.202631-62.99166C564.435745 344.910471 565.450864 340.062046 569.022203 337.717651zM501.935272 343.702969c0-4.323469 3.447519-7.824199 7.700379-7.824199s7.700379 3.500731 7.700379 7.824199l0 63.797002c0 4.323469-3.447519 7.823176-7.700379 7.823176s-7.700379-3.499707-7.700379-7.823176L501.935272 343.702969zM399.405107 403.018913l40.203654-63.009056c2.309602-3.623527 7.071046-4.65502 10.640338-2.292206 3.571339 2.344395 4.585435 7.191796 2.27481 10.815323l-40.201607 62.99166c-2.310625 3.623527-7.072069 4.65502-10.642384 2.309602C398.110625 411.472446 397.094482 406.64244 399.405107 403.018913zM325.299319 403.018913l40.186258-63.009056c2.328022-3.623527 7.089465-4.65502 10.659781-2.292206 3.552919 2.344395 4.584412 7.191796 2.257413 10.815323l-40.186258 62.99166c-2.309602 3.623527-7.088442 4.65502-10.640338 2.309602C324.003813 411.472446 322.988694 406.64244 325.299319 403.018913z" p-id="27698" fill="#ffffff"></path></svg>