<?xml version="1.0" standalone="no"?><!DOCTYPE svg PUBLIC "-//W3C//DTD SVG 1.1//EN" "http://www.w3.org/Graphics/SVG/1.1/DTD/svg11.dtd"><svg t="1486458900659" class="icon" style="" viewBox="0 0 1024 1024" version="1.1" xmlns="http://www.w3.org/2000/svg" p-id="17775" xmlns:xlink="http://www.w3.org/1999/xlink" width="200" height="200"><defs><style type="text/css"></style></defs><path d="M512.6 958.2c-13.9 0-27.7-3.6-40.1-10.7L155.4 765.1c-24.8-14.3-40.2-40.9-40.3-69.5l-0.6-365.9c0-28.6 15.3-55.3 40.1-69.7L471.1 76.6c24.8-14.4 55.6-14.4 80.4-0.1l317.1 182.4c24.8 14.3 40.2 40.9 40.3 69.5l0.6 365.9c0 28.6-15.3 55.3-40.1 69.7L552.9 947.4c-12.4 7.2-26.4 10.8-40.3 10.8z m-1.2-885.9c-12.8 0-25.6 3.3-37 9.9L157.8 265.7c-22.7 13.2-36.8 37.7-36.8 64l0.6 365.9c0 26.3 14.2 50.8 37 63.9l317.1 182.4c22.8 13.1 51.1 13.1 73.8-0.1l316.6-183.4c22.7-13.2 36.8-37.7 36.8-64l-0.6-365.9c0-26.3-14.2-50.8-37-63.9L548.2 82.1c-11.3-6.5-24.1-9.8-36.8-9.8z" p-id="17776" fill="#ffffff"></path><path d="M721.3 700.3v15.4c0 32-83.7 59.3-83.7 59.3l-34.9-4.4s-55.8-7-90.7-7c-34.9 0-90.7 7-90.7 7l-34.6 4.3s-84-27.4-84-59.2v-15.4c0-29.7 38.7-59.7 84.1-82.6 2.2-1.1 29.5 153.3 29.5 153.3l12.1-0.3s-23.3-159.4-20.9-160.5c12.6-5.7 20.8-11.1 33.2-15.6 4.6-1.7 26.5-13.6 14.2-45.6-28.4-28.9-47.7-57-47.7-120.2h210.6c0 62.6-19.8 90.8-48 119.8h0.2c-12 36.3 7.2 45 10.2 46 12.2 4 24.4 10.4 36.7 15.6 3 1.3-20.9 160.5-20.9 160.5l12.7-0.3s26-153.9 28.6-152.6c45.9 22.4 84 52.2 84 82.5zM632 362.2c0-72.6-98.9-109-98.9-109-14-6.3-27.9-4.9-42.2 0 0 0-98.9 31.9-98.9 109 0 11.5-20.9 9-27.8 45.5H660c-12.7-36.7-28-34-28-45.5z" p-id="17777" fill="#ffffff"></path></svg>