<?xml version="1.0" standalone="no"?><!DOCTYPE svg PUBLIC "-//W3C//DTD SVG 1.1//EN" "http://www.w3.org/Graphics/SVG/1.1/DTD/svg11.dtd"><svg t="1485155211745" class="icon" style="" viewBox="0 0 1024 1024" version="1.1" xmlns="http://www.w3.org/2000/svg" p-id="2222" xmlns:xlink="http://www.w3.org/1999/xlink" width="200" height="200"><defs><style type="text/css"></style></defs><path d="M546.2016 443.733333V0h426.018133l1.706667 0.170667C1002.496 3.037867 1024.068267 6.007467 1024.068267 34.133333v409.6H546.2016z m363.758933-242.688h-256.170666a27.716267 27.716267 0 1 0 0 55.330134h256.170666a27.648 27.648 0 1 0 0-55.330134zM0.034133 970.5472V512.785067L477.934933 512v512l-424.413866-0.034133a53.521067 53.521067 0 0 1-53.486934-53.418667z m129.672534-102.0928a27.648 27.648 0 0 0 39.150933 0l71.2704-71.202133 75.400533 75.298133a27.648 27.648 0 1 0 39.150934-39.1168l-75.3664-75.298133 70.690133-70.621867a27.648 27.648 0 1 0-39.150933-39.150933l-70.724267 70.621866-66.594133-66.525866a27.648 27.648 0 1 0-39.150934 39.150933l66.594134 66.525867-71.2704 71.168a27.648 27.648 0 0 0 0 39.150933zM0.034133 54.510933C0.034133 26.385067 21.572267 3.037867 50.141867 0.170667L51.848533 0H477.934933v443.733333H0.068267L0.034133 54.510933z m114.0736 193.7408h100.795734v106.496a27.648 27.648 0 0 0 55.3984 0v-106.496h99.976533a27.716267 27.716267 0 1 0 0-55.330133H270.301867V98.816a27.716267 27.716267 0 0 0-55.3984 0v94.1056H114.107733a27.648 27.648 0 1 0 0 55.330133z m909.892267 722.295467c0 29.457067-23.9616 53.418667-53.486933 53.418667L546.2016 1024V512l477.7984 0.785067v457.762133z m-114.039467-313.002667h-256.170666a27.716267 27.716267 0 1 0 0 55.364267h256.170666a27.716267 27.716267 0 1 0 0-55.364267z m0 150.493867h-256.170666a27.716267 27.716267 0 1 0 0 55.330133h256.170666a27.716267 27.716267 0 1 0 0-55.330133z" fill="" p-id="2223"></path></svg>