<?xml version="1.0" standalone="no"?><!DOCTYPE svg PUBLIC "-//W3C//DTD SVG 1.1//EN" "http://www.w3.org/Graphics/SVG/1.1/DTD/svg11.dtd"><svg t="1485156860386" class="icon" style="" viewBox="0 0 1024 1024" version="1.1" xmlns="http://www.w3.org/2000/svg" p-id="2331" xmlns:xlink="http://www.w3.org/1999/xlink" width="200" height="200"><defs><style type="text/css"></style></defs><path d="M195.704 320.211l86.57 0 0 91.563c0 13.141 10.653 23.794 23.798 23.794 13.14 0 23.793-10.653 23.793-23.794l0-91.563 85.887 0c13.139 0 23.793-10.648 23.793-23.794 0-13.145-10.654-23.793-23.793-23.793l-85.887 0 0-80.897c0-13.141-10.653-23.793-23.793-23.793-13.146 0-23.798 10.652-23.798 23.793l0 80.897-86.57 0c-13.145 0-23.798 10.648-23.798 23.793C171.906 309.563 182.56 320.211 195.704 320.211L195.704 320.211zM907.68 71.26l-1.449-0.147L115.653 71.113l-1.45 0.147c-24.537 2.466-43.037 22.558-43.037 46.737l0 787.661c0 25.333 20.612 45.945 45.944 45.945l787.661 0c25.337 0 45.945-20.612 45.945-45.945L950.716 117.998C950.717 93.818 932.216 73.726 907.68 71.26L907.68 71.26zM892.584 479.15 540.008 479.15l0-349.9 352.576 0L892.584 479.15 892.584 479.15zM481.875 129.25l0 349.9L129.304 479.15l0-349.9L481.875 129.25 481.875 129.25zM129.304 537.288l352.572 0 0 356.179L129.304 893.467 129.304 537.288 129.304 537.288zM540.008 893.467 540.008 537.288l352.576 0 0 356.179L540.008 893.467 540.008 893.467zM605.661 320.211l220.052 0c13.141 0 23.789-10.648 23.789-23.794 0-13.145-10.648-23.793-23.789-23.793L605.661 272.624c-13.141 0-23.793 10.648-23.793 23.793C581.868 309.563 592.521 320.211 605.661 320.211L605.661 320.211zM402.159 778.302l-64.745-64.745 60.733-60.732c9.292-9.288 9.292-24.357 0-33.65-9.294-9.292-24.358-9.292-33.65 0l-60.733 60.732-57.202-57.202c-9.292-9.293-24.357-9.293-33.65 0-9.292 9.293-9.292 24.357 0 33.65l57.201 57.202-61.214 61.215c-9.292 9.293-9.297 24.362 0 33.655 9.292 9.292 24.358 9.288 33.65 0l61.215-61.22 64.746 64.745c9.292 9.293 24.356 9.297 33.653 0C411.453 802.659 411.453 787.595 402.159 778.302L402.159 778.302zM825.709 626.829 605.661 626.829c-13.141 0-23.798 10.649-23.798 23.799 0 13.141 10.657 23.789 23.798 23.789l220.048 0c13.141 0 23.793-10.648 23.793-23.789C849.502 637.482 838.85 626.829 825.709 626.829L825.709 626.829zM825.709 756.218 605.661 756.218c-13.141 0-23.798 10.652-23.798 23.798 0 13.141 10.657 23.793 23.798 23.793l220.048 0c13.141 0 23.793-10.652 23.793-23.793C849.502 766.87 838.85 756.218 825.709 756.218L825.709 756.218zM825.709 756.218" p-id="2332" fill="#999999"></path></svg>