<?xml version="1.0" standalone="no"?><!DOCTYPE svg PUBLIC "-//W3C//DTD SVG 1.1//EN" "http://www.w3.org/Graphics/SVG/1.1/DTD/svg11.dtd"><svg t="1485157704378" class="icon" style="" viewBox="0 0 1024 1024" version="1.1" xmlns="http://www.w3.org/2000/svg" p-id="13075" xmlns:xlink="http://www.w3.org/1999/xlink" width="200" height="200"><defs><style type="text/css"></style></defs><path d="M822.825508 464.775074l0 18.80525c0 140.615263-101.058282 256.337603-231.065737 271.828101 25.999372 21.391497 58.917854 34.295548 94.880471 34.295548l30.332435 0c69.250848-0.274814 55.510164 99.494343 90.918157 77.55222 11.064498-6.826372 25.630622-36.882993 45.458979-62.061722 20.19131-25.718563 45.452983-46.559433 45.452983-46.559433s-0.181877 0-0.36875 0.08794c36.882793-28.306808 60.949476-73.302101 60.949476-124.200592l0-15.490497C959.290585 538.628802 899.447359 472.426887 822.825508 464.775074zM533.484482 153.301054l-208.660528 0c-144.027949 0-260.851942 122.540518-260.851942 273.755794l0 27.391429c0 89.717971 41.308393 169.196885 104.932656 219.081862-0.186873 0-0.555224-0.098933-0.555224-0.098933s43.520893 36.793854 78.283724 82.164093c34.113871 44.534606 59.194266 97.457724 78.279127 109.535535 60.861136 38.73174 37.25674-137.289518 156.47511-136.926764l52.191014 0c144.022952 0 260.847545-122.537719 260.847545-273.755794l0-27.391429c-0.08894-151.215076-116.824393-273.758792-260.941482-273.758792L533.484482 153.301054zM429.196389 602.066591c-94.694597 0-171.778534-61.962789-171.778534-138.12695 0-10.326998 8.300772-18.623373 18.62837-18.623373 10.326998 0 18.622774 8.296375 18.622774 18.623373 0 55.608098 60.304913 100.880403 134.52739 100.880403 74.137535 0 134.532387-45.272106 134.532387-100.880403 0-10.326998 8.301372-18.623373 18.62837-18.623373s18.622374 8.296375 18.622374 18.623373c0 76.164161-77.083537 138.12695-171.778134 138.12695L429.196389 602.066591z" p-id="13076" fill="#333333"></path></svg>