<?xml version="1.0" standalone="no"?><!DOCTYPE svg PUBLIC "-//W3C//DTD SVG 1.1//EN" "http://www.w3.org/Graphics/SVG/1.1/DTD/svg11.dtd"><svg t="1485233120555" class="icon" style="" viewBox="0 0 1024 1024" version="1.1" xmlns="http://www.w3.org/2000/svg" p-id="6081" xmlns:xlink="http://www.w3.org/1999/xlink" width="200" height="200"><defs><style type="text/css"></style></defs><path d="M511.395738 99.948363c-230.817969 0-417.932578 134.947482-417.932578 301.419957 0 118.751614 95.222735 221.470067 233.607502 270.593881 21.98164 7.80271-115.527177 258.087033-93.049233 248.453628 42.031279-18.013259 237.372246-217.630622 277.374308-217.630622 230.820016 0 417.930531-134.951575 417.930531-301.416887C929.326269 234.895845 742.215754 99.948363 511.395738 99.948363zM307.27378 469.818295c-35.150568 0-63.646576-28.498054-63.646576-63.648622s28.497031-63.647599 63.646576-63.647599 63.647599 28.497031 63.647599 63.647599S342.423325 469.818295 307.27378 469.818295zM516.228813 469.818295c-35.152615 0-63.651692-28.498054-63.651692-63.648622s28.499078-63.647599 63.651692-63.647599c35.147498 0 63.643506 28.497031 63.643506 63.647599S551.375288 469.818295 516.228813 469.818295zM717.975676 469.818295c-35.154661 0-63.650669-28.498054-63.650669-63.648622s28.497031-63.647599 63.650669-63.647599c35.146475 0 63.642482 28.497031 63.642482 63.647599S753.122151 469.818295 717.975676 469.818295z" p-id="6082" fill="#bbbbbb"></path></svg>