<?xml version="1.0" standalone="no"?><!DOCTYPE svg PUBLIC "-//W3C//DTD SVG 1.1//EN" "http://www.w3.org/Graphics/SVG/1.1/DTD/svg11.dtd"><svg width="200.1953125" height="200" viewBox="0 0 200.1953125 200" version="1.1" xmlns="http://www.w3.org/2000/svg" xmlns:xlink="http://www.w3.org/1999/xlink"><defs><style type="text/css"><![CDATA[
@font-face { font-family: ifont; src: url("//at.alicdn.com/t/font_1442373896_4754455.eot?#iefix") format("embedded-opentype"), url("//at.alicdn.com/t/font_1442373896_4754455.woff") format("woff"), url("//at.alicdn.com/t/font_1442373896_4754455.ttf") format("truetype"), url("//at.alicdn.com/t/font_1442373896_4754455.svg#ifont") format("svg"); }

]]></style></defs><g class="transform-group"><g transform="scale(0.1953125, 0.1953125)"><path d="M468.325 797.294c-12.092-12.092-19.089-29.187-17.924-47.835 3.054-47.974-14.37-94.584-47.743-127.957-33.913-33.913-79.3-50.929-127.682-47.835-35.171 2.205-64.654-24.368-65.858-59.579-1.237-35.164 26.224-65.352 61.395-67.557 83.552-5.299 164.984 25.21 223.444 83.67 58.374 58.374 88.791 139.898 83.539 223.668-2.199 35.177-32.426 62.599-67.55 61.402-16.423-0.506-30.977-7.333-41.621-17.977v0 0zM681.125 781.561c-11.315-11.315-18.227-27.139-18.056-44.609 1.159-101.687-37.303-196.719-108.223-267.639-71.091-71.091-166.084-109.606-267.547-108.487-35.21 0.441-63.192-27.831-62.626-62.995 0.579-35.164 29.588-63.989 64.753-64.383 135.311-1.448 262.037 49.882 356.72 144.565 94.558 94.558 145.803 221.278 144.295 356.911-0.388 35.171-29.259 64.134-64.429 64.799-17.562 0.171-33.472-6.747-44.886-18.161v0 0zM893.43 765.888c-11.052-11.052-17.872-26.323-18.062-43.432-1.138-153.906-60.875-297.859-168.342-405.326-107.683-107.683-251.591-167.558-405.273-168.552-35.079-0.257-62.646-28.917-61.441-64.179 1.205-35.17 30.714-63.495 65.832-63.304 186.673 1.257 361.499 73.869 492.228 204.598 130.465 130.465 203.078 305.291 204.466 492.188 0.243 35.17-28.088 64.673-63.205 65.931-18.154 0.672-34.565-6.286-46.203-17.924v0 0zM227.233 689.603c-30.464 30.464-31.155 79.155-1.494 108.816 29.615 29.615 78.352 28.97 108.816-1.494 30.464-30.464 31.109-79.201 1.494-108.816-29.661-29.569-78.352-28.97-108.816 1.494v0 0z" fill="#ef6e5d"></path></g></g></svg>