<?xml version="1.0" standalone="no"?><!DOCTYPE svg PUBLIC "-//W3C//DTD SVG 1.1//EN" "http://www.w3.org/Graphics/SVG/1.1/DTD/svg11.dtd"><svg t="1485396335241" class="icon" style="" viewBox="0 0 1024 1024" version="1.1" xmlns="http://www.w3.org/2000/svg" p-id="3225" xmlns:xlink="http://www.w3.org/1999/xlink" width="200" height="200"><defs><style type="text/css"></style></defs><path d="M512 0q-60.992 47.008-118.016 76.992t-139.488 49.504-180.512 19.488l0 379.008q0 52.992 24.992 120.512t69.504 132.992 99.488 120.992 120 90.016 124.512 34.496 124-34.496 119.488-90.016 99.488-120.992 69.504-132.992 24.992-120.512l0-379.008q-144 0-244-36.992t-194.016-108.992zM770.016 376.992l-8 0q-31.008 0-48 7.008-16 8-24.992 28.992l-164 420-27.008 0-2.016-4-168.992-416.992q-11.008-24-23.008-30.016-4-2.016-10.016-3.008t-14.496-1.504-17.504-0.512l-8 0 0-40 211.008 0 0 40-7.008 0q-36.992 0-48.992 4.992-4.992 3.008-6.496 7.008t1.504 16.992l124.992 307.008 116-306.016q6.016-12.992-4.992-20-12.992-10.016-51.008-10.016l-7.008 0 0-40 188 0 0 40z" p-id="3226" fill="#ff7f00"></path></svg>