<?xml version="1.0" standalone="no"?><!DOCTYPE svg PUBLIC "-//W3C//DTD SVG 1.1//EN" "http://www.w3.org/Graphics/SVG/1.1/DTD/svg11.dtd"><svg t="1487316705436" class="icon" style="" viewBox="0 0 1024 1024" version="1.1" xmlns="http://www.w3.org/2000/svg" p-id="5983" xmlns:xlink="http://www.w3.org/1999/xlink" width="200" height="200"><defs><style type="text/css"></style></defs><path d="M510.977 68.951c-244.1 0-442.064 197.964-442.064 442.064s197.964 442.064 442.064 442.064 442.064-197.964 442.064-442.064-197.964-442.064-442.064-442.064v0 0zM508.134 820.358c-35.976 0-65.248-28.657-65.248-63.923 0-35.261 29.167-63.922 65.248-63.922 35.97 0 65.241 28.661 65.241 63.922 0 35.266-29.167 63.923-65.241 63.923v0 0zM683.33 458.681c-12.802 20.121-39.941 47.457-81.603 82.112-21.546 17.884-34.957 32.314-40.142 43.291-5.18 10.872-7.622 30.387-7.116 58.538h-92.88c-0.204-13.314-0.406-21.446-0.406-24.395 0-30.079 4.977-54.771 14.936-74.183 9.958-19.411 29.876-41.26 59.655-65.446 29.777-24.289 47.66-40.142 53.456-47.66 8.942-11.889 13.511-24.999 13.511-39.23 0-19.814-8.023-36.784-23.878-51.010-15.853-14.127-37.399-21.243-64.328-21.243-26.017 0-47.766 7.419-65.243 22.157-17.48 14.732-32.521 47.254-36.079 67.376-3.354 19.005-94.916 27.034-93.799-11.483 1.116-38.516 21.139-80.282 55.487-110.565 34.352-30.284 79.472-45.429 135.262-45.429 58.743 0 105.385 15.348 140.141 46.033 34.755 30.69 52.033 66.362 52.033 107.112 0.098 22.56-6.303 43.902-19.006 64.024v0 0zM683.33 458.681z" p-id="5984" fill="#1296db"></path></svg>