<?xml version="1.0" standalone="no"?><!DOCTYPE svg PUBLIC "-//W3C//DTD SVG 1.1//EN" "http://www.w3.org/Graphics/SVG/1.1/DTD/svg11.dtd"><svg t="1485396689406" class="icon" style="" viewBox="0 0 1025 1024" version="1.1" xmlns="http://www.w3.org/2000/svg" p-id="5917" xmlns:xlink="http://www.w3.org/1999/xlink" width="200.1953125" height="200"><defs><style type="text/css"></style></defs><path d="M906.1 128.9 117.9 128.9C52.8 128.9 0 181.7 0 246.8l0 530.4c0 65.1 52.8 117.8 117.9 117.8l788.3 0c65.1 0 117.9-52.8 117.9-117.8L1024.1 246.8C1024 181.7 971.2 128.9 906.1 128.9L906.1 128.9zM655.8 362.9l163.7 0c13 0 25 17.7 25 30.7 0 13-12 30.7-25 30.7L655.8 424.3c-13 0-25-17.7-25-30.7C630.8 380.6 642.8 362.9 655.8 362.9L655.8 362.9zM655.8 494.1l163.7 0c13 0 25 17.7 25 30.7 0 13-12 30.7-25 30.7L655.8 555.5c-13 0-25-17.7-25-30.7C630.8 511.8 642.8 494.1 655.8 494.1L655.8 494.1zM121.4 722.2c-12.8-2.5-21.2-14.8-18.7-27.6 15.2-79.4 74.5-140.6 149.3-162.1-38.8-20.8-65.6-61.3-65.6-108.4 0-68.1 55.4-123.4 123.4-123.4 68 0 123.4 55.4 123.4 123.4 0 47.1-26.8 87.6-65.6 108.4 75 21.5 134.3 83 149.3 162.7 2.4 12.8-6 25.1-18.8 27.5l0 0c-1.5 0.3-3 0.4-4.4 0.4M898.2 686.7 655.8 686.7c-13 0-25-17.7-25-30.7 0-13 12-30.7 25-30.7l242.4 0c13 0 25 17.7 25 30.7C923.2 669 911.2 686.7 898.2 686.7L898.2 686.7zM898.2 686.7" p-id="5918" fill="#00ffff"></path></svg>