<?xml version="1.0" standalone="no"?><!DOCTYPE svg PUBLIC "-//W3C//DTD SVG 1.1//EN" "http://www.w3.org/Graphics/SVG/1.1/DTD/svg11.dtd"><svg t="1495509179265" class="icon" style="" viewBox="0 0 1024 1024" version="1.1" xmlns="http://www.w3.org/2000/svg" p-id="1013" xmlns:xlink="http://www.w3.org/1999/xlink" width="200" height="200"><defs><style type="text/css"></style></defs><path d="M844.629261 778.941702 844.629261 343.562776c0-92.234681-74.756611-167.07725-166.933987-167.07725L242.665297 176.485527c23.01518-64.742537 84.176145-111.381763 156.759253-111.381763L789.00336 65.103764c92.206028 0 166.962639 74.800613 166.962639 167.093623l0 389.869429C955.965999 694.706205 909.327796 755.926522 844.629261 778.941702zM789.00336 399.275659l0 389.868405c0 92.293009-74.785264 167.137625-166.962639 167.137625L232.432235 956.281689c-92.206028 0-166.932963-74.844615-166.932963-167.137625L65.499271 399.275659c0-92.294033 74.726935-167.078273 166.932963-167.078273L622.04072 232.197386C714.218096 232.196363 789.00336 306.981626 789.00336 399.275659zM176.807357 789.144064c0 30.78412 24.899086 55.712883 55.624878 55.712883L622.04072 844.856947c30.725792 0 55.654554-24.928762 55.654554-55.712883L677.695275 454.987518 176.807357 454.987518 176.807357 789.144064zM232.432235 287.908222c-30.725792 0-55.624878 24.928762-55.624878 55.654554 0 30.78412 24.899086 55.712883 55.624878 55.712883 30.755468 0 55.654554-24.928762 55.654554-55.712883C288.086789 312.838008 263.187703 287.908222 232.432235 287.908222z" p-id="1014" fill="#0000ff"></path></svg>