<?xml version="1.0" standalone="no"?><!DOCTYPE svg PUBLIC "-//W3C//DTD SVG 1.1//EN" "http://www.w3.org/Graphics/SVG/1.1/DTD/svg11.dtd"><svg t="1485396215655" class="icon" style="" viewBox="0 0 1024 1024" version="1.1" xmlns="http://www.w3.org/2000/svg" p-id="2449" xmlns:xlink="http://www.w3.org/1999/xlink" width="200" height="200"><defs><style type="text/css"></style></defs><path d="M895.755931 716.945719l-153.502372 0c-14.140639 0-25.583729 11.466146-25.583729 25.582655 0 14.140045 11.44309 25.582655 25.583729 25.582655l153.502372 0c14.139615 0 25.583729-11.44261 25.583729-25.582655C921.33966 728.412888 909.895546 716.945719 895.755931 716.945719zM691.086101 307.623239l204.66983 0c14.139615 0 25.583729-11.44261 25.583729-25.582655 0-14.116509-11.444114-25.582655-25.583729-25.582655l-204.66983 0c-14.140639 0-25.583729 11.466146-25.583729 25.582655C665.502372 296.18063 676.945463 307.623239 691.086101 307.623239zM895.755931 409.953859l-204.66983 0c-14.140639 0-25.583729 11.443633-25.583729 25.582655 0 14.140045 11.44309 25.582655 25.583729 25.582655l204.66983 0c14.139615 0 25.583729-11.44261 25.583729-25.582655C921.33966 421.397493 909.895546 409.953859 895.755931 409.953859zM895.755931 563.449789l-153.502372 0c-14.140639 0-25.583729 11.466146-25.583729 25.582655 0 14.140045 11.44309 25.582655 25.583729 25.582655l153.502372 0c14.139615 0 25.583729-11.44261 25.583729-25.582655C921.33966 574.916958 909.895546 563.449789 895.755931 563.449789zM606.837859 545.751708c-51.466275 72.700789-131.989527 119.744221-222.707382 119.744221-90.717855 0-171.117281-47.043433-222.583557-119.744221-35.627901 27.931143-58.689074 70.90284-58.689074 119.744221l0 102.33062c0 84.768639 68.532669 153.781432 153.304866 153.781432l255.837287 0c84.771174 0 153.699879-69.012793 153.699879-153.781432l0-102.33062C665.699879 616.653525 642.46576 573.682851 606.837859 545.751708zM384.081356 614.33062c127.168529 0 230.253559-114.545826 230.253559-255.82655 0-141.2797-103.08503-255.82655-230.253559-255.82655-127.169552 0-230.253559 114.546849-230.253559 255.82655C153.827798 499.784794 256.911804 614.33062 384.081356 614.33062z" p-id="2450" fill="#d81e06"></path></svg>