<?xml version="1.0" standalone="no"?><!DOCTYPE svg PUBLIC "-//W3C//DTD SVG 1.1//EN" "http://www.w3.org/Graphics/SVG/1.1/DTD/svg11.dtd"><svg t="1485396618255" class="icon" style="" viewBox="0 0 1024 1024" version="1.1" xmlns="http://www.w3.org/2000/svg" p-id="5194" xmlns:xlink="http://www.w3.org/1999/xlink" width="200" height="200"><defs><style type="text/css"></style></defs><path d="M830.61524 372.681091c-0.60207 9.151458-1.565381 18.543744-3.010348 28.417686-23.721543 164.003763-153.768579 283.093133-309.222954 283.093133l-50.694262 0-9.271872 9.633114c34.920038 64.78269 99.823142 107.047977 172.793979 107.047977L681.542803 800.873001l99.582314 103.917215c6.502352 6.74318 15.172154 10.235183 24.082785 10.235183 4.214487 0 8.428975-0.722484 12.402634-2.408278 12.643462-5.057385 20.831609-17.339605 20.831609-30.825964l0-85.01223c92.718721-19.266228 161.354657-106.325494 161.354657-211.567262C999.917215 477.802446 926.344309 388.696143 830.61524 372.681091z" p-id="5195" fill="#00ff00"></path><path d="M780.041392 394.235183c2.287865-16.135466 3.492004-30.585136 3.492004-44.312324 0-157.862653-118.968956-286.223895-265.151458-286.223895L289.234243 63.698965C143.05174 63.698965 24.082785 192.060207 24.082785 349.92286c0 141.727187 93.682032 258.649106 219.15334 282.009407L243.236124 752.587018c0 15.894638 9.633114 30.103481 24.323612 36.003763 4.696143 1.926623 9.633114 2.76952 14.449671 2.76952 10.476011 0 20.590781-4.214487 28.056444-11.920978l137.151458-143.172154 71.164628 0C649.753528 636.267168 759.811853 534.517404 780.041392 394.235183zM215.540922 261.418627l372.681091 0c10.476011 0 18.904986 8.91063 18.904986 19.988711 0 11.078081-8.428975 19.988711-18.904986 19.988711L215.540922 301.396049c-10.476011 0-18.904986-8.91063-18.904986-19.988711C196.635936 270.449671 205.185325 261.418627 215.540922 261.418627zM439.269991 446.856068 215.540922 446.856068c-10.476011 0-18.904986-8.91063-18.904986-19.988711 0-11.078081 8.428975-19.988711 18.904986-19.988711l223.729069 0c10.476011 0 18.904986 8.91063 18.904986 19.988711C458.29539 437.945437 449.746002 446.856068 439.269991 446.856068z" p-id="5196" fill="#00ff00"></path></svg>