<?xml version="1.0" standalone="no"?><!DOCTYPE svg PUBLIC "-//W3C//DTD SVG 1.1//EN" "http://www.w3.org/Graphics/SVG/1.1/DTD/svg11.dtd"><svg t="1485396778152" class="icon" style="" viewBox="0 0 1024 1024" version="1.1" xmlns="http://www.w3.org/2000/svg" p-id="6632" xmlns:xlink="http://www.w3.org/1999/xlink" width="200" height="200"><defs><style type="text/css"></style></defs><path d="M846.951655 616.272855c-50.840922 0-94.443999-30.893614-112.25362-74.514087-17.609053 43.620473-60.747549 74.514087-111.047142 74.514087-50.299593 0-93.446275-30.893614-111.055328-74.514087-17.804505 43.620473-61.408605 74.514087-112.245434 74.514087-50.299593 0-93.446275-30.893614-111.059422-74.514087-17.800411 43.620473-61.404512 74.514087-112.24134 74.514087-11.978822 0-23.533996-1.797949-34.453696-5.057179l0 247.025093c0 22.966061 25.521257 51.036373 48.487318 51.036373l641.835044 0c22.964014 0 48.485271-28.070312 48.485271-51.036373L881.403305 611.308797C870.474394 614.499465 858.926384 616.272855 846.951655 616.272855zM879.489722 225.283929 141.958152 225.283929 65.396429 425.619654c0 59.97393 49.76645 109.73424 111.01542 109.73424 61.243853 0 112.285343-48.486294 112.285343-109.73424 0 59.97393 49.76645 109.73424 111.01542 109.73424s112.285343-48.486294 112.285343-109.73424c0 59.97393 49.76645 109.73424 111.01542 109.73424 61.249993 0 111.010303-48.486294 111.010303-109.73424 0 59.97393 49.76645 109.73424 112.291482 109.73424 61.247946 0 112.290459-48.486294 112.290459-109.73424L879.489722 225.283929 879.489722 225.283929zM843.757916 224.00889 843.757916 224.00889 846.309018 225.283929 843.757916 224.00889ZM192.994526 191.284581l638.003785 0c21.696138 0 38.283931-16.587793 38.283931-38.282908 0-21.691021-16.587793-38.278815-38.283931-38.278815L192.994526 114.722858c-21.689998 0-38.277792 16.587793-38.277792 38.278815C154.716734 174.696788 171.305551 191.284581 192.994526 191.284581L192.994526 191.284581zM157.263743 174.247556" p-id="6633" fill="#0000ff"></path></svg>