<?xml version="1.0" standalone="no"?><!DOCTYPE svg PUBLIC "-//W3C//DTD SVG 1.1//EN" "http://www.w3.org/Graphics/SVG/1.1/DTD/svg11.dtd"><svg t="1486350358024" class="icon" style="" viewBox="0 0 1024 1024" version="1.1" xmlns="http://www.w3.org/2000/svg" p-id="4239" xmlns:xlink="http://www.w3.org/1999/xlink" width="200" height="200"><defs><style type="text/css"></style></defs><path d="M947.2 157.866667l-4.266667 0c-8.533333 0-119.466667-4.266667-230.4-51.2-110.933333-46.933333-183.466667-98.133333-196.266667-102.4l0 0L512 0l-4.266667 4.266667c-4.266667 4.266667-76.8 55.466667-196.266667 102.4C200.533333 153.6 93.866667 153.6 81.066667 157.866667l-4.266667 0L76.8 597.333333c0 98.133333 59.733333 183.466667 162.133333 281.6C332.8 964.266667 439.466667 1024 512 1024c72.533333 0 179.2-59.733333 273.066667-145.066667 102.4-98.133333 162.133333-183.466667 162.133333-281.6L947.2 157.866667zM763.733333 704l-512 0 0-42.666667 72.533333 0L324.266667 422.4l72.533333 0 0 234.666667 89.6 0L486.4 345.6l76.8 0 0 106.666667 145.066667 0 0 51.2-145.066667 0 0 153.6 196.266667 0L759.466667 704zM785.066667 413.866667c-115.2-34.133333-209.066667-85.333333-273.066667-157.866667-64 68.266667-157.866667 123.733333-273.066667 157.866667L238.933333 366.933333C345.6 324.266667 422.4 260.266667 469.333333 183.466667L554.666667 183.466667c46.933333 76.8 119.466667 140.8 230.4 183.466667L785.066667 413.866667z" p-id="4240" fill="#cccccc"></path></svg>