<?xml version="1.0" standalone="no"?><!DOCTYPE svg PUBLIC "-//W3C//DTD SVG 1.1//EN" "http://www.w3.org/Graphics/SVG/1.1/DTD/svg11.dtd"><svg t="1486453638297" class="icon" style="" viewBox="0 0 1024 1024" version="1.1" xmlns="http://www.w3.org/2000/svg" p-id="17441" xmlns:xlink="http://www.w3.org/1999/xlink" width="200" height="200"><defs><style type="text/css"></style></defs><path d="M877.493709 361.976205 650.276127 361.976205 650.276127 75.851628c0-32.808895-26.5965-59.405395-59.405395-59.405395L146.505284 16.446233c-32.808895 0-59.405395 26.5965-59.405395 59.405395l0 888.358352c0 32.808895 26.5965 59.405395 59.405395 59.405395l409.628394 0 34.737053 0 286.622978 0c32.808895 0 59.405395-26.5965 59.405395-59.405395L936.899104 421.3816C936.899104 388.572705 910.302604 361.976205 877.493709 361.976205zM307.417383 787.411468l-62.947568 0L244.469815 661.514318l62.947568 0L307.417383 787.411468zM307.417383 535.693691l-62.947568 0L244.469815 409.796541l62.947568 0L307.417383 535.693691zM307.417383 283.975914l-62.947568 0L244.469815 158.078764l62.947568 0L307.417383 283.975914zM496.262101 787.411468l-62.947568 0L433.314533 661.514318l62.947568 0L496.262101 787.411468zM496.262101 535.693691l-62.947568 0L433.314533 409.796541l62.947568 0L496.262101 535.693691zM496.262101 283.975914l-62.947568 0L433.314533 158.078764l62.947568 0L496.262101 283.975914z" p-id="17442" fill="#18C0d5"></path></svg>