<?xml version="1.0" standalone="no"?><!DOCTYPE svg PUBLIC "-//W3C//DTD SVG 1.1//EN" "http://www.w3.org/Graphics/SVG/1.1/DTD/svg11.dtd"><svg t="1485399187383" class="icon" style="" viewBox="0 0 1437 1024" version="1.1" xmlns="http://www.w3.org/2000/svg" p-id="14770" xmlns:xlink="http://www.w3.org/1999/xlink" width="280.6640625" height="200"><defs><style type="text/css"></style></defs><path d="M991.259053 570.674746c-123.941716 0-224.413189 99.56385-224.413189 222.400041 0 122.829366 100.471473 222.393217 224.413189 222.393217 123.936598 0 224.406365-99.56385 224.406365-222.393217C1215.667124 670.240302 1115.195651 570.674746 991.259053 570.674746zM988.420172 937.426077c-11.695029 11.449357-30.65616 11.449357-42.351189 0l-95.245817-93.300911c-11.669438-11.449357-11.669438-30.016388 0-41.465745 11.695029-11.449357 30.649336-11.449357 42.318774 0l74.094108 72.562067 142.909671-139.9326c11.662614-11.449357 30.65616-11.449357 42.318774 0 11.695029 11.442532 11.695029 29.995915 0 41.452096L988.420172 937.426077z" p-id="14771" fill="#1afa29"></path><path d="M707.133827 793.078198c0-63.279405 21.062995-121.677777 56.613835-168.695035l-311.355621 0 0.254203-53.771542 75.515254 0L528.161497 509.282241l-109.832615-0.254203 0.083597-46.300713 163.097458-180.765397 151.719756 0 141.773436 142.628172-36.697312 35.678795-129.370393-127.169578-98.286013-0.254203-117.308562 129.970926 85.36774 0 0 107.798993 62.520209 0L641.228798 378.376396l57.083001 0 0 84.269039 89.707952 0 0 46.213705-89.537346 0.3378 0.255909 61.670592 118.008046 0c36.316861-28.051009 79.688272-47.539312 127.038212-55.433243 0.682423-6.181049 1.035577-12.186374 1.035577-17.980147L944.820149 240.032136c-140.340347 0-222.130484-40.776497-298.109786-99.350593-76.069723 58.574096-157.94175 99.350593-298.198501 99.350593l0 257.420297c0 122.767948 157.854741 339.500463 298.198501 339.500463 20.522174 0 41.417975-4.662657 62.138052-12.959218C707.727535 813.840927 707.133827 803.527805 707.133827 793.078198z" p-id="14772" fill="#1afa29"></path><path d="M731.776131 907.918094c-28.313742 12.20514-56.958459 19.099322-85.050413 19.099322-176.931884 0-375.940161-273.235457-375.940161-427.995408L270.785557 174.497323c176.824402 0 280.042629-51.408652 375.940161-125.251969 95.783225 73.843317 198.895677 125.251969 375.81903 125.251969l0 324.526391c0 4.604651-0.180842 9.31849-0.528878 14.12275 14.250704 1.520098 28.185788 4.082597 41.723359 7.612432 0.646596-7.018723 0.979277-13.868547 0.979277-20.518762L1064.718507 139.303048c-196.776753 0-311.463103-57.173422-417.994495-139.303064C540.073196 82.129626 425.270833 139.303048 228.611799 139.303048l0 360.935379c0 172.136154 221.337167 476.024359 418.115625 476.024359 35.649792 0 72.09802-9.977028 107.886002-27.329346C745.905705 935.977633 738.250622 922.266044 731.776131 907.918094z" p-id="14773" fill="#1afa29"></path></svg>