<?xml version="1.0" standalone="no"?><!DOCTYPE svg PUBLIC "-//W3C//DTD SVG 1.1//EN" "http://www.w3.org/Graphics/SVG/1.1/DTD/svg11.dtd"><svg t="1485399112069" class="icon" style="" viewBox="0 0 1024 1024" version="1.1" xmlns="http://www.w3.org/2000/svg" p-id="14000" xmlns:xlink="http://www.w3.org/1999/xlink" width="200" height="200"><defs><style type="text/css"></style></defs><path d="M239.522987 519.610696c0 112.545294 144.714084 311.233184 273.370455 311.233184 128.674359 0 273.291908-198.68789 273.291908-311.233184L786.18535 283.618699c-128.65837 0-203.637334-37.379457-273.291908-91.078049-69.73412 53.698392-144.790032 91.078049-273.370455 91.078049L239.522987 519.610696zM670.6261 646.119523l-0.356758 0c0.082944-0.179878 0.219851-0.32378 0.356758-0.503659L670.6261 646.119523zM670.66907 598.388085c0 33.887025-27.466378 61.343209-61.346207 61.343209-33.883027 0-61.343209-27.456385-61.343209-61.343209 0-33.883027 27.460382-61.343209 61.343209-61.343209C643.202693 537.044876 670.66907 564.50106 670.66907 598.388085zM394.082796 571.692185l64.191278-21.255589 21.719674-11.764024-0.1479-24.200992c0 0-16.199417-7.777127-16.242987-27.191564-0.721511-0.040972-1.473001-0.136308-2.347408-0.223249-11.565758-1.481396-21.478438-19.625094-22.335856-31.970724-0.864414-12.347029 9.176778-13.389322 9.176778-13.389322l8.092513 2.672188c-1.085264-1.037297-3.168452-6.056893-3.168452-29.537973 0-14.659061 3.888364-21.804217 11.677083-26.507028 0-0.045569-0.042971-0.136907-0.042971-0.181877 0 0-11.670088-27.740192 50.673044-28.271232 60.083064 0.53104 59.942159 52.070496 59.942159 52.070496l-0.178879 5.29481-1.808774 24.79319c0.627575-0.222849 8.501236-0.359756 9.272713-0.359756 7.007249 0 6.473611 13.979922 6.473611 13.979922s-8.404302 29.908122-20.005436 31.398712c-1.051287 0.136907-1.847747 0.233841-2.672188 0.275213-2.073594 15.926202-18.176676 26.694301-18.176676 26.694301l0 25.331225 0.529641 11.130454 1.07627 0.211856c-10.622798 13.180064-16.995477 29.918515-16.851575 48.128169 0 17.838905 6.066887 34.265768 16.289955 47.293735l-177.750085 0-0.463286-37.052878c-0.134909-30.174542 23.071757-37.368464 23.071757-37.368464L394.082796 571.691785zM567.315344 607.61383c8.697103 9.151795 15.437533 14.877913 23.356165 23.253234 1.565938 1.670867 3.063923 2.755132 4.521934 3.3917 1.980657 1.627896 3.827405 2.070596 7.000254-0.273814 2.441345-1.220173 4.425-3.344732 6.012923-4.928658 1.163211-1.131233 2.491311-2.082588 2.715159-3.615549 12.573475-13.08213 22.573695-23.250236 37.9053-38.330012 8.228221-8.087517 3.013957-13.964532-0.579607-17.544105-2.397375-2.383384-6.063889-6.426643-13.98232 1.405047-16.738651 16.527794-21.762245 22.400812-36.832028 37.779186-4.467971-4.478963-7.503912-7.474932-14.826947-14.795968-3.983299-3.989295-7.554878-8.336348-14.871917-1.044292-3.813415 3.799424-7.615836 7.141158-0.418716 14.699034L567.315544 607.61383zM511.886125 63.574089C414.114015 138.864242 308.87077 191.277106 128.587002 191.277106l0 330.882262c0 157.804209 202.909427 436.392526 383.299123 436.392526 180.424272 0 383.194194-278.585319 383.194194-436.392526L895.08032 191.277106C714.685028 191.277106 609.549709 138.864242 511.886125 63.574089L511.886125 63.574089zM840.377608 520.582437c0 135.277482-173.823747 374.102758-328.49548 374.102758-154.653345 0-328.600809-238.829474-328.600809-374.102758L183.281319 236.92056c154.555811 0 244.777041-44.934335 328.600809-109.479573 83.722036 64.545038 173.84973 109.479573 328.49548 109.479573L840.377608 520.582437z" p-id="14001" fill="#1afa29"></path></svg>