<?xml version="1.0" standalone="no"?><!DOCTYPE svg PUBLIC "-//W3C//DTD SVG 1.1//EN" "http://www.w3.org/Graphics/SVG/1.1/DTD/svg11.dtd"><svg t="1486349789230" class="icon" style="" viewBox="0 0 1024 1024" version="1.1" xmlns="http://www.w3.org/2000/svg" p-id="2459" xmlns:xlink="http://www.w3.org/1999/xlink" width="200" height="200"><defs><style type="text/css"></style></defs><path d="M187.307351 521.7775c0 128.7725 165.575 356.1025 312.77875 356.1025 147.22625 0 312.68875-227.33 312.68875-356.1025V251.77c-147.20375 0-232.99375-42.77125-312.68875-104.20875-79.78625 61.43875-165.66375 104.20875-312.77875 104.20875v270.0075z" fill="#00BA97" p-id="2460"></path><path d="M680.559851 666.53125h-0.41125c0.09625-0.2075 0.25375-0.375 0.41125-0.58v0.58z" fill="#272536" p-id="2461"></path><path d="M680.608601 611.9125c0 38.77625-31.42625 70.1925-70.1925 70.1925-38.7675 0-70.18375-31.41625-70.18375-70.1925 0-38.7675 31.41625-70.18375 70.18375-70.18375 38.76625 0 70.1925 31.415 70.1925 70.18375z" fill="#FFFFFF" p-id="2462"></path><path d="M364.147351 581.3675l73.44625-24.3175 24.85-13.4575-0.1675-27.6925s-18.53625-8.89875-18.58625-31.11125c-0.82375-0.04875-1.685-0.15625-2.68625-0.255-13.23125-1.695-24.57375-22.45625-25.5525-36.58-0.99-14.12625 10.4975-15.32125 10.4975-15.32125l9.26125 3.0575c-1.24375-1.1875-3.62625-6.93125-3.62625-33.7975 0-16.77125 4.45125-24.94625 13.36125-30.3275 0-0.05-0.04875-0.1575-0.04875-0.2075 0 0-13.3525-31.74 57.98-32.34625 68.74125 0.60625 68.58375 59.575 68.58375 59.575l-0.2075 6.05875-2.0675 28.36875c0.7175-0.25625 9.72625-0.4125 10.6075-0.4125 8.0175 0 7.41 15.99625 7.41 15.99625s-9.61625 34.21875-22.88875 35.925c-1.205 0.15625-2.11625 0.265-3.0575 0.31375-2.37375 18.22125-20.8 30.54375-20.8 30.54375v28.98375l0.60875 12.73375 1.2325 0.245c-12.15375 15.0775-19.44625 34.23125-19.28 55.0675 0 20.41 6.94 39.20125 18.635 54.11125H338.278601l-0.53-42.39625c-0.15375-34.5225 26.39875-42.7575 26.39875-42.7575zM562.353601 622.47c9.95125 10.47 17.665 17.02625 26.7225 26.60375 1.79375 1.91125 3.50875 3.155 5.1775 3.88125 2.2625 1.86375 4.3775 2.37 8.0075-0.3125 2.79125-1.39375 5.065-3.825 6.87875-5.6375 1.3325-1.29375 2.8525-2.3825 3.1075-4.13625 14.39-14.96625 25.8275-26.6025 43.3725-43.855 9.41125-9.2525 3.45-15.97625-0.665-20.075-2.74625-2.72375-6.94-7.35-15.9975 1.60875-19.15375 18.9075-24.89875 25.63125-42.14 43.2275-5.115-5.12625-8.585-8.5575-16.9675-16.92875-4.55625-4.56625-8.645-9.53625-17.015-1.19375-4.3625 4.34875-8.71375 8.17125-0.48125 16.8175z" fill="#FFE844" p-id="2463"></path><path d="M498.936101 0C387.067351 86.145 266.651101 146.115 60.376101 146.115V524.7c0 180.5525 232.1625 499.3 438.56 499.3 206.4325 0 438.4325-318.7475 438.4325-499.3V146.115C730.969851 146.115 610.676101 86.145 498.936101 0z m375.845 522.8925c0 154.78-198.885 428.03375-375.85 428.03375-176.94875 0-375.97375-273.25875-375.97375-428.03375V198.3375c176.8375 0 280.06375-51.4125 375.97375-125.2625 95.79 73.85 198.91125 125.2625 375.85 125.2625v324.555z" fill="#00BA97" p-id="2464"></path></svg>