<?xml version="1.0" standalone="no"?><!DOCTYPE svg PUBLIC "-//W3C//DTD SVG 1.1//EN" "http://www.w3.org/Graphics/SVG/1.1/DTD/svg11.dtd"><svg t="1487230762332" class="icon" style="" viewBox="0 0 1024 1024" version="1.1" xmlns="http://www.w3.org/2000/svg" p-id="1434" xmlns:xlink="http://www.w3.org/1999/xlink" width="200" height="200"><defs><style type="text/css"></style></defs><path d="M556.182 65.232c5.014 2.512 10.063 4.952 15.014 7.577 1.493 0.792 2.828 1.983 4.036 3.19 87.002 86.965 173.997 173.939 260.944 260.96 7.019 7.025 10.769 15.398 10.763 25.673-0.103 163.872-0.056 327.745-0.104 491.617-0.005 12.471-3.696 24.23-8.274 35.654-6.431 16.045-16.7 29.475-29.511 40.936-14.572 13.036-31.507 21.64-50.655 25.644-5.029 1.052-10.237 1.741-15.364 1.747-102.293 0.1-204.586-0.002-306.878 0.167-13.268 0.022-23.286-5.725-30.094-16.174-9.244-14.184-9.204-27.49-0.417-41.553 7.403-11.846 18.846-17.561 32.562-17.583 99.374-0.153 198.748 0.079 298.122-0.225 18.557-0.056 31.014-13.165 34.301-29.358 0.738-3.637 0.902-7.445 0.903-11.175 0.044-144.903 0.037-289.805 0.037-434.707 0-1.873 0-3.746 0-6.175-1.981 0-3.675 0-5.367 0-47.28 0-94.559-0.056-141.837 0.028-17.786 0.033-34.751-3.593-50.62-11.487-16.455-8.187-30.308-19.692-41.152-34.667-9.947-13.734-16.272-29.079-19.933-45.523-0.962-4.322-1.078-8.897-1.086-13.357-0.072-49.76-0.045-99.52-0.045-149.281 0-1.728 0-3.457 0-5.754-1.822 0-3.367 0-4.912 0-73.254 0-146.508-0.003-219.761 0.003-15.284 0.002-31.258 13.629-33.562 28.797-0.605 3.975-0.893 8.036-0.893 12.060-0.040 221.22-0.017 442.442-0.070 663.661-0.006 20.483 16.664 36.936 36.553 37.292 23.67 0.425 40.053 19.125 37.817 42.803-1.366 14.462-14.539 30.016-28.654 31.847-12.367 1.605-25.069 1.201-37.439-2.35-17.187-4.933-32.507-12.943-46.008-24.789-16.079-14.109-27.352-31.235-33.117-51.697-2.421-8.59-4.228-17.7-4.237-26.575-0.228-227.787-0.236-455.574-0.061-683.362 0.012-16.574 5.299-32.189 13.908-46.301 5.119-8.39 10.922-16.602 17.674-23.701 9.923-10.432 21.666-18.865 35.238-24.141 7.538-2.931 15.382-5.085 23.135-7.439 3.184-0.966 6.489-1.535 9.74-2.284 93.105 0 186.207 0 279.308 0zM586.827 195.409c0 31.256-0.118 62.32 0.040 93.382 0.107 20.863 16.36 36.936 36.743 37.239 30.476 0.453 60.966 0.121 91.448 0.101 0.879 0 1.76-0.246 2.182-0.309-43.406-43.406-86.782-86.782-130.413-130.413z" p-id="1435" fill="#1296db"></path><path d="M570.945 510.767c65.438 0 130.884 0.598 196.312-0.274 28.822-0.384 52.244 25.119 50.812 50.648-0.804 14.336-5.32 26.389-15.56 36.019-8.927 8.396-19.608 13.282-32.283 13.278-132.422-0.054-264.842-0.023-397.263-0.044-23.095-0.005-42.832-16.77-47.123-38.225-5.704-28.53 8.674-53.538 40.122-61.255 1.825-0.448 3.843-0.142 5.772-0.142 66.403-0.006 132.807-0.005 199.21-0.005z" p-id="1436" fill="#1296db"></path><path d="M614.399 776.462c-50.002 0-100.004-0.021-150.006 0.008-22.158 0.013-45.683-21.675-46.508-44.064-0.444-12.099 0.7-23.225 7.616-33.329 8.581-12.539 20.125-20.838 35.449-22.102 13.376-1.104 26.857-1.242 40.293-1.259 85.331-0.102 170.663-0.097 255.995-0.021 22.687 0.021 40.584 8.973 51.078 29.754 4.885 9.675 5.489 20.583 3.29 30.928-4.744 22.308-19.766 34.803-41.421 39.972-1.648 0.392-3.462 0.109-5.198 0.109-50.195 0.005-100.388 0.003-150.584 0.003z" p-id="1437" fill="#1296db"></path></svg>