<?xml version="1.0" standalone="no"?><!DOCTYPE svg PUBLIC "-//W3C//DTD SVG 1.1//EN" "http://www.w3.org/Graphics/SVG/1.1/DTD/svg11.dtd"><svg width="38.40625" height="32" viewBox="0 0 38.40625 32" version="1.1" xmlns="http://www.w3.org/2000/svg" xmlns:xlink="http://www.w3.org/1999/xlink"><defs><style type="text/css"><![CDATA[
@font-face { font-family: ifont; src: url("//at.alicdn.com/t/font_1442373896_4754455.eot?#iefix") format("embedded-opentype"), url("//at.alicdn.com/t/font_1442373896_4754455.woff") format("woff"), url("//at.alicdn.com/t/font_1442373896_4754455.ttf") format("truetype"), url("//at.alicdn.com/t/font_1442373896_4754455.svg#ifont") format("svg"); }

]]></style></defs><g class="transform-group"><g transform="scale(0.03125, 0.03125)"><path d="M607.189686 47.628694c-252.394843 0-456.991736 204.596893-456.991736 456.991736s204.596893 456.991736 456.991736 456.991736 456.991736-204.596893 456.991736-456.991736S859.584529 47.628694 607.189686 47.628694zM885.649983 371.314248 537.557686 743.779438c-5.517752 5.517752-12.592661 8.192-19.769124 8.73362-12.55881 8.225851-29.21362 7.37957-40.215273-3.689785l-182.999802-184.387702c-12.626512-12.728066-12.626512-33.343471 0-46.071537s33.140364-12.728066 45.766876 0l166.209587 167.462083 335.228826-358.687736c12.118744-12.186446 31.752463-12.186446 43.905058 0C897.768727 339.290975 897.768727 359.09395 885.649983 371.314248z" fill="#f04e30"></path></g></g></svg>